<svg width="29" height="29" viewBox="0 0 29 29" fill="none" xmlns="http://www.w3.org/2000/svg">
<path d="M26.9881 24.0917L25.1109 22.8134C24.9605 22.711 24.7828 22.6562 24.6009 22.6562H23.2981C21.9592 24.2467 20.2368 25.499 18.2756 26.2812H24.6009C24.7828 26.2812 24.9605 26.2265 25.1109 26.1241L26.9881 24.8458C27.2539 24.6647 27.2539 24.2728 26.9881 24.0917Z" fill="black"/>
<path d="M3.62511 15.2627L5.47937 13.6737C5.88211 9.68997 9.16621 6.55372 13.208 6.36328L11.8905 4.82629C11.7445 4.65725 11.7445 4.40591 11.8905 4.23687L13.1736 2.71875C7.11686 2.93287 2.19615 7.73006 1.8125 13.7422L3.62511 15.2627Z" fill="black"/>
<path d="M12.8313 4.53158L14.4202 6.38562C18.4039 6.78836 21.5402 10.0727 21.7305 14.1147L23.2677 12.797C23.4368 12.651 23.6881 12.651 23.8571 12.797L25.375 14.0798C25.1609 8.02333 20.3638 3.10251 14.352 2.71875L12.8313 4.53158Z" fill="black"/>
<path d="M3.3303 16.2034L1.83032 14.9177C1.92148 17.4916 2.83481 19.8527 4.32024 21.7499H9.87429C7.35135 20.4501 5.60428 17.8731 5.46439 14.8794L3.91972 16.2034C3.75068 16.3495 3.49934 16.3495 3.3303 16.2034Z" fill="black"/>
<path d="M14.3562 24.4689L12.8028 22.6562H2.71875C2.21828 22.6562 1.8125 23.062 1.8125 23.5625V25.375C1.8125 25.8755 2.21828 26.2812 2.71875 26.2812H12.8031L14.3562 24.4689Z" fill="black"/>
<path d="M23.5625 13.7378L21.7081 15.3269C21.3051 19.3105 18.021 22.4464 13.9792 22.6367L15.2971 24.1742C15.4431 24.3433 15.4431 24.5946 15.2971 24.7636L14.0145 26.2813C20.0708 26.0669 24.953 21.2699 25.3368 15.2583L23.5625 13.7378Z" fill="black"/>
<path d="M13.5938 9.0625C10.5907 9.0625 8.15625 11.4969 8.15625 14.5C8.15625 17.5031 10.5907 19.9375 13.5938 19.9375C16.5968 19.9375 19.0312 17.5031 19.0312 14.5C19.0312 11.4969 16.5968 9.0625 13.5938 9.0625ZM16.2479 12.4676L13.5291 16.9988C13.4575 17.1183 13.3344 17.1984 13.1959 17.2152C13.1774 17.2174 13.1588 17.2188 13.1406 17.2188C13.0211 17.2188 12.9057 17.1714 12.8203 17.086L11.0078 15.2735C10.8307 15.0965 10.8307 14.8098 11.0078 14.6328C11.1848 14.4557 11.4715 14.4557 11.6485 14.6328L13.0508 16.035L15.4709 12.0012C15.6001 11.787 15.878 11.7171 16.0926 11.8459C16.3072 11.9746 16.3767 12.253 16.2479 12.4676Z" fill="black"/>
</svg>
