<svg width="29" height="17" viewBox="0 0 29 17" fill="none" xmlns="http://www.w3.org/2000/svg">
<path d="M8.505 6.27243C8.505 6.61618 8.53251 6.89118 8.60126 7.12493C8.67001 7.28993 8.76626 7.50993 8.89001 7.75743C8.94501 7.81243 8.95875 7.89493 8.95875 7.96368C8.95875 8.05993 8.90376 8.14243 8.78001 8.23868L8.20251 8.62368C8.12001 8.67868 8.03751 8.70618 7.96876 8.70618C7.87251 8.70618 7.79001 8.65118 7.69376 8.56868C7.57001 8.43118 7.46 8.29368 7.36375 8.14243C7.28125 7.99118 7.18501 7.81243 7.08876 7.60618C6.37376 8.44493 5.48 8.87118 4.39375 8.87118C3.62375 8.87118 3.01875 8.65118 2.565 8.21118C2.125 7.77118 1.89125 7.17993 1.89125 6.43743C1.89125 5.68118 2.16625 5.06243 2.71625 4.56743C3.28 4.09993 4.0225 3.85243 4.9575 3.85243C5.27375 3.85243 5.5625 3.87993 5.93375 3.93493C6.25 3.97618 6.62126 4.04493 6.97876 4.12743V3.46743C6.97876 2.76618 6.84125 2.31243 6.5525 1.99618C6.25 1.70743 5.76875 1.58368 5.0675 1.58368C4.7375 1.58368 4.4075 1.62493 4.0775 1.69368C3.73375 1.77618 3.40375 1.87243 3.0875 2.00993C2.93625 2.06493 2.8125 2.10618 2.77125 2.11993C2.7025 2.14743 2.66125 2.14743 2.62 2.14743C2.49625 2.14743 2.4275 2.06493 2.4275 1.87243V1.41868C2.4275 1.28118 2.44125 1.17118 2.49625 1.10243C2.5375 1.03368 2.62 0.978682 2.74375 0.937432C3.07375 0.744932 3.445 0.607431 3.89875 0.497431C4.36552 0.375387 4.84631 0.315288 5.32875 0.318682C6.415 0.318682 7.21251 0.566182 7.72126 1.06118C8.23001 1.55618 8.4775 2.31243 8.4775 3.31618V6.27243H8.505ZM4.7925 7.67493C5.095 7.67493 5.3975 7.61993 5.7275 7.50993C6.0575 7.39993 6.34625 7.19368 6.59376 6.91868C6.74501 6.73993 6.85501 6.54743 6.93751 6.32743C6.93751 6.10743 7.00626 5.84618 7.00626 5.52993V5.15868C6.73126 5.06243 6.45625 5.06243 6.15375 4.99368C5.87054 4.96274 5.5861 4.94439 5.30125 4.93868C4.6825 4.93868 4.2425 5.06243 3.94 5.30993C3.6375 5.55743 3.5 5.90118 3.5 6.35493C3.5 6.79493 3.59625 7.12493 3.83 7.33118C4.05 7.56493 4.36625 7.67493 4.7925 7.67493ZM12.135 8.65118C12.0019 8.65516 11.8698 8.62685 11.75 8.56868C11.7088 8.49993 11.64 8.37618 11.585 8.21118L9.44 1.14368C9.385 0.937432 9.35751 0.841182 9.35751 0.772432C9.35751 0.621182 9.42626 0.538682 9.57751 0.538682H10.4713C10.65 0.538682 10.7738 0.566182 10.8288 0.634932C10.9113 0.689932 10.9663 0.813682 11.0213 0.992432L12.5475 7.04243L13.9775 0.992432C14.0188 0.813682 14.0738 0.689932 14.1563 0.634932C14.225 0.579932 14.3488 0.538682 14.5 0.538682H15.2563C15.4213 0.538682 15.545 0.566182 15.6138 0.634932C15.6825 0.689932 15.7513 0.813682 15.7925 0.992432L17.25 7.12493L18.8175 0.992432C18.8725 0.813682 18.9413 0.689932 18.9963 0.634932C19.0788 0.579932 19.1888 0.538682 19.3538 0.538682H20.2063C20.3575 0.538682 20.44 0.621182 20.44 0.772432C20.44 0.813682 20.4263 0.868682 20.4125 0.937432C20.4125 0.937432 20.385 1.04743 20.3575 1.14368L18.1438 8.21118C18.0888 8.40368 18.0338 8.49993 17.9375 8.56868C17.8825 8.62368 17.7588 8.66493 17.6075 8.66493H16.8238C16.645 8.66493 16.5625 8.63743 16.4525 8.56868C16.36 8.47066 16.3021 8.34514 16.2875 8.21118L14.8713 2.31243L13.455 8.19743C13.4138 8.37618 13.3588 8.49993 13.29 8.56868C13.1765 8.63054 13.0478 8.65914 12.9188 8.65118H12.135ZM23.8913 8.89868C23.4375 8.89868 22.9288 8.84368 22.475 8.73368C22.0213 8.62368 21.6638 8.49993 21.43 8.37618C21.3106 8.31875 21.2103 8.22802 21.1413 8.11493C21.1039 8.03784 21.0851 7.95309 21.0863 7.86743V7.39993C21.0863 7.20743 21.155 7.12493 21.2925 7.12493H21.4575C21.5125 7.12493 21.595 7.19368 21.6913 7.23493C21.9938 7.37243 22.3375 7.48243 22.695 7.55118C23.0663 7.61993 23.4375 7.66118 23.7813 7.66118C24.3588 7.66118 24.8125 7.56493 25.115 7.35868C25.4313 7.12493 25.5963 6.86368 25.5963 6.49243C25.5963 6.23118 25.5 6.02493 25.3488 5.84618C25.1838 5.68118 24.8675 5.51618 24.4275 5.37868L23.0938 4.96618C22.4338 4.74618 21.9388 4.44368 21.6363 4.03118C21.3411 3.64934 21.1814 3.18008 21.1825 2.69743C21.1825 2.31243 21.265 1.98243 21.43 1.69368C21.595 1.39118 21.815 1.14368 22.0625 0.937432C22.365 0.731182 22.6675 0.579931 23.0388 0.469931C23.3963 0.359931 23.7813 0.304932 24.1938 0.304932C24.3863 0.304932 24.5925 0.318682 24.8125 0.346182C25.005 0.373682 25.1975 0.414932 25.39 0.442432C25.5825 0.497432 25.7475 0.538682 25.9125 0.593682C26.0775 0.648682 26.1875 0.703682 26.2975 0.758682C26.4213 0.827432 26.5175 0.896182 26.5725 0.978682C26.6275 1.06118 26.655 1.15743 26.655 1.28118V1.72118C26.655 1.91368 26.5863 2.00993 26.4488 2.00993C26.38 2.00993 26.2563 1.96868 26.0913 1.89993C25.5825 1.66618 24.9913 1.54243 24.345 1.54243C23.8225 1.54243 23.4375 1.62493 23.1213 1.80368C22.8463 1.96868 22.695 2.24368 22.695 2.61493C22.695 2.87618 22.7913 3.09618 22.97 3.26118C23.1488 3.43993 23.4925 3.60493 23.9738 3.76993L25.28 4.18243C25.94 4.37493 26.4075 4.67743 26.6963 5.06243C26.9713 5.43368 27.1088 5.85993 27.1088 6.34118C27.1088 6.72618 27.0263 7.08368 26.875 7.39993C26.71 7.70243 26.49 7.97743 26.1875 8.19743C25.9263 8.43118 25.5825 8.59618 25.1975 8.71993C24.8125 8.84368 24.345 8.89868 23.8913 8.89868ZM25.61 13.3537C22.5988 15.5674 18.2263 16.7499 14.5 16.7499C9.20626 16.7499 4.4625 14.7974 0.873755 11.5662C0.585005 11.3049 0.846255 10.9612 1.19 11.1674C5.0675 13.4087 9.83876 14.7699 14.7888 14.7699C18.13 14.7699 21.8013 14.0824 25.17 12.6249C25.6788 12.4187 26.105 12.9824 25.61 13.3537ZM26.875 11.9374C26.4763 11.4287 24.3175 11.6899 23.3413 11.7999C23.0525 11.8412 23.0113 11.5799 23.2725 11.3874C24.9913 10.1912 27.8238 10.5624 28.14 10.9337C28.47 11.3462 28.0575 14.1787 26.4488 15.5262C26.1875 15.7324 25.9538 15.6224 26.0638 15.3749C26.435 14.4399 27.2463 12.4049 26.875 11.9374Z" fill="black"/>
</svg>
