<svg width="112" height="98" viewBox="0 0 112 98" fill="none" xmlns="http://www.w3.org/2000/svg">
<path d="M11.4226 71.2269C11.4226 73.3779 13.198 75.2854 15.2001 75.2854H20.6213M52.9746 75.2854L45.4197 95.5776M68.0844 75.2854L75.6393 95.5776M37.8648 95.5776H83.1942M11.4226 29.5605V6.29184C11.4226 4.14087 13.198 2.2334 15.2001 2.2334H105.859C106.861 2.2334 107.822 2.66098 108.53 3.42209C109.238 4.18319 109.636 5.21547 109.636 6.29184V71.2269C109.636 73.3779 107.861 75.2854 105.859 75.2854H60.5295H39.5607" stroke="#BBBAB9" stroke-width="3" stroke-linecap="round" stroke-linejoin="round"/>
<path d="M77.4394 23.8787L71.7576 31.4544L77.4394 39.0302M92.5909 23.8787L98.2727 31.4544L92.5909 39.0302" stroke="#BBBAB9" stroke-width="3" stroke-linecap="round" stroke-linejoin="round"/>
<ellipse cx="85.0153" cy="7.99404" rx="1.89394" ry="1.89394" stroke="#BBBAB9" stroke-width="2"/>
<ellipse cx="92.591" cy="7.99404" rx="1.89394" ry="1.89394" stroke="#BBBAB9" stroke-width="2"/>
<ellipse cx="100.167" cy="7.99404" rx="1.89394" ry="1.89394" stroke="#BBBAB9" stroke-width="2"/>
<path d="M52.4972 51.9026L56.3495 55.333C57.0608 55.9266 57.5362 56.7554 57.6894 57.6691C57.8426 58.5829 57.6635 59.5213 57.1847 60.3145L52.5398 68.2492C52.1794 68.8566 51.6649 69.3579 51.0483 69.7023C50.4246 70.0475 49.7242 70.2306 49.0114 70.235C48.5692 70.2377 48.1293 70.1716 47.7074 70.039L42.777 68.4111C41.9134 68.9651 41.0157 69.4608 40.0839 69.8983L39.0484 74.8969C38.8567 75.8164 38.3448 76.638 37.6037 77.2151C36.8533 77.8026 35.923 78.1127 34.9702 78.093H25.3523C24.3996 78.1127 23.4692 77.8026 22.7188 77.2151C21.9794 76.6373 21.469 75.8158 21.2785 74.8969L20.2387 69.8983C19.3191 69.455 18.4269 68.9569 17.5668 68.4069L12.6194 70.039C12.1975 70.1716 11.7576 70.2377 11.3154 70.235C10.604 70.2299 9.90522 70.0468 9.28275 69.7023C8.66673 69.3591 8.15223 68.8593 7.79128 68.2535L2.9802 60.3145C2.48004 59.5142 2.28893 58.5589 2.44269 57.6277C2.59645 56.6965 3.08452 55.8534 3.81543 55.2563L7.66344 50.3941V48.8856L3.81117 45.4552C3.09979 44.8615 2.62447 44.0328 2.47126 43.119C2.31805 42.2053 2.49709 41.2668 2.97594 40.4736L7.78702 32.539C8.14738 31.9316 8.66193 31.4303 9.27849 31.0858C9.90096 30.7414 10.5998 30.5583 11.3112 30.5532C11.7494 30.5255 12.1892 30.5658 12.6151 30.6725L17.4646 32.377C18.331 31.8231 19.2288 31.3273 20.1577 30.8898L21.1975 25.8912C21.388 24.9724 21.8984 24.1509 22.6379 23.5731C23.3883 22.9856 24.3186 22.6755 25.2714 22.6952H34.8083C35.7611 22.6755 36.6914 22.9856 37.4418 23.5731C38.1876 24.1569 38.6989 24.9793 38.8822 25.8912L39.9219 30.8898C40.8452 31.3302 41.7358 31.8273 42.5938 32.3813L47.5455 30.7535C48.0951 30.5747 48.6758 30.5119 49.2508 30.5691C49.8259 30.6263 50.3828 30.8023 50.8864 31.0858C51.5043 31.4353 52.0157 31.9381 52.3779 32.5347L57.1847 40.4736C57.6916 41.2672 57.8924 42.2181 57.7497 43.1488C57.607 44.0796 57.1305 44.9266 56.4091 45.5319L52.4972 48.8643V51.9026Z" stroke="#BBBAB9" stroke-width="3"/>
<path d="M40.7443 50.3941C40.7443 53.2196 39.6219 55.9293 37.624 57.9272C35.6261 59.9251 32.9164 61.0475 30.0909 61.0475C27.2654 61.0475 24.5557 59.9251 22.5578 57.9272C20.5599 55.9293 19.4375 53.2196 19.4375 50.3941C19.4375 47.5687 20.5599 44.8589 22.5578 42.861C24.5557 40.8631 27.2654 39.7407 30.0909 39.7407C32.9164 39.7407 35.6261 40.8631 37.624 42.861C39.6219 44.8589 40.7443 47.5687 40.7443 50.3941Z" stroke="#BBBAB9" stroke-width="3"/>
<line x1="11" y1="13.5" x2="110" y2="13.5" stroke="#BBBAB9" stroke-width="3"/>
</svg>
