<svg width="28" height="28" viewBox="0 0 28 28" fill="none" xmlns="http://www.w3.org/2000/svg">
<path d="M21.5998 7.20044C17.6274 7.20044 14.9986 10.4483 12.6793 13.3144C10.6978 15.7628 8.82666 18.0748 6.54768 18.0748C4.17885 18.0748 2.72446 15.6402 2.72446 13.8948C2.72446 12.2766 4.31995 9.9249 6.82055 9.9249C9.24697 9.9249 10.5111 11.8669 10.5748 11.9664C10.9679 12.6026 11.8026 12.8028 12.4419 12.4128C13.0844 12.0214 13.2879 11.1832 12.8963 10.5407C12.8132 10.4047 10.8149 7.20063 6.82055 7.20063C2.80125 7.20063 0 10.729 0 13.895C0 17.1607 2.68904 20.7994 6.54749 20.7994C10.126 20.7994 12.5008 17.8657 14.7969 15.0282C16.921 12.4042 18.9275 9.92508 21.5998 9.92508C23.1897 9.92508 24.2344 10.4645 24.7928 11.5728C25.2767 12.5345 25.2763 13.6229 25.2759 13.9999C25.2759 14.2161 25.1617 15.3006 24.6327 16.2771C24.0295 17.3894 23.1733 17.9072 21.9358 17.9072C19.444 17.9072 18.0977 16.2875 17.5907 15.6774C17.4589 15.5186 17.3641 15.4044 17.2373 15.2959C16.6666 14.807 15.8062 14.8726 15.3164 15.4441C14.8441 15.9952 14.8895 16.8146 15.4055 17.3106C15.4301 17.3385 15.4597 17.3753 15.4949 17.4179C16.1557 18.2131 18.1648 20.6313 21.9353 20.6313C26.5178 20.6313 27.9998 16.163 27.9998 13.9813C28.0002 12.5918 27.74 11.3694 27.2255 10.3474C26.5033 8.91224 24.9406 7.20044 21.5998 7.20044Z" fill="black"/>
</svg>
