<svg width="28" height="31" viewBox="0 0 28 31" fill="none" xmlns="http://www.w3.org/2000/svg">
<g clip-path="url(#clip0_2_48)">
<path fill-rule="evenodd" clip-rule="evenodd" d="M13.4733 2.4709C13.8273 2.26654 14.2634 2.26654 14.6174 2.4709L23.5347 7.61925C23.8887 7.82363 24.1067 8.20132 24.1067 8.61006V18.9068C24.1067 19.3155 23.8887 19.6932 23.5347 19.8975L14.6174 25.0459C14.2634 25.2503 13.8273 25.2503 13.4733 25.0459L11.2441 23.7588C10.6969 23.4429 10.5094 22.7432 10.8253 22.196C11.1412 21.6488 11.841 21.4613 12.3882 21.7773L14.0454 22.7341L21.8186 18.2463V9.27059L14.0454 4.78278L6.27229 9.27059V18.2879L8.06464 19.4598C8.07167 19.4591 8.0788 19.4584 8.08602 19.4576C8.31038 19.4352 8.59021 19.3917 8.85433 19.3126C9.1304 19.2297 9.30864 19.1316 9.40093 19.0485C9.46047 18.995 9.46911 18.9703 9.46911 18.9068V10.3262C9.46911 9.69433 9.98132 9.1821 10.6132 9.1821C11.245 9.1821 11.7572 9.69433 11.7572 10.3262V18.9068C11.7572 19.7013 11.4084 20.3202 10.9316 20.7493C10.4876 21.1489 9.95079 21.3725 9.5118 21.5042C9.06085 21.6395 8.62561 21.7032 8.31369 21.7345C8.15494 21.7504 8.02133 21.7584 7.92483 21.7626C7.87645 21.7647 7.83699 21.7657 7.80794 21.7663L7.77222 21.7669L7.76046 21.767H7.75617H7.75442C7.75406 21.767 7.75294 21.767 7.75294 20.6229V21.767C7.53056 21.767 7.31299 21.7021 7.12686 21.5805L4.50212 19.8644C4.17892 19.6531 3.98413 19.2929 3.98413 18.9068V8.61006C3.98413 8.20132 4.20219 7.82363 4.55617 7.61925L13.4733 2.4709ZM13.8851 10.0908C14.5746 9.51615 15.5755 9.1821 16.9056 9.1821C18.2358 9.1821 19.2366 9.51615 19.9262 10.0908C20.6077 10.6588 20.9098 11.406 20.9098 12.0423C20.9098 12.6742 20.3976 13.1864 19.7658 13.1864C19.134 13.1864 18.6217 12.6742 18.6217 12.0423C18.6217 12.055 18.6224 12.0608 18.622 12.0609C18.6205 12.0612 18.6029 11.9666 18.4614 11.8486C18.2929 11.7082 17.8636 11.4703 16.9056 11.4703C15.9476 11.4703 15.5184 11.7082 15.3499 11.8486C15.2145 11.9614 15.1924 12.0528 15.1896 12.0604C15.1901 12.3472 15.2051 12.376 15.2111 12.3875C15.2113 12.3879 15.2115 12.3883 15.2118 12.3887C15.2122 12.3896 15.2258 12.4189 15.2882 12.4743C15.356 12.5346 15.4806 12.6249 15.7012 12.7352C16.1445 12.9568 16.5976 13.0741 17.1831 13.2206L17.2204 13.2299C17.7723 13.3677 18.4482 13.5366 19.1334 13.8792C20.005 14.315 20.4603 14.9883 20.685 15.5502C20.7951 15.8251 20.8504 16.0729 20.8787 16.257C20.893 16.3498 20.9007 16.4286 20.9049 16.4897C20.9071 16.5202 20.9082 16.5465 20.909 16.5682L20.9097 16.597L20.9098 16.6088V16.6139V16.6163C20.9098 16.6169 20.9098 16.6186 19.7658 16.6186L20.9098 16.6163C20.9098 17.2525 20.6077 18.0021 19.9262 18.5701C19.2366 19.1447 18.2358 19.4788 16.9056 19.4788C15.5755 19.4788 14.5746 19.1447 13.8851 18.5701C13.2035 18.0021 12.9013 17.2548 12.9013 16.6186C12.9013 15.9867 13.4136 15.4745 14.0454 15.4745C14.6773 15.4745 15.1895 15.9867 15.1895 16.6186C15.1895 16.6059 15.1889 16.6001 15.1892 16.6C15.1907 16.5997 15.2083 16.6943 15.3499 16.8123C15.5184 16.9527 15.9476 17.1907 16.9056 17.1907C17.8636 17.1907 18.2929 16.9527 18.4614 16.8123C18.5738 16.7186 18.6081 16.6397 18.6181 16.6113C18.6178 16.6092 18.6175 16.6071 18.6171 16.6049C18.6097 16.5565 18.5935 16.4826 18.5606 16.4C18.4993 16.2468 18.3825 16.062 18.1101 15.9258C17.6667 15.7041 17.2137 15.5868 16.6281 15.4403L16.5907 15.4311C16.0389 15.2932 15.363 15.1243 14.6778 14.7817C13.9763 14.4309 13.4573 13.9965 13.1651 13.412C12.8988 12.8793 12.9004 12.3552 12.9013 12.0835C12.9013 12.069 12.9013 12.0552 12.9013 12.0423C12.9013 11.4061 13.2035 10.6588 13.8851 10.0908Z" fill="black"/>
<mask id="path-2-inside-1_2_48" fill="white">
<path d="M25.7945 29.5343C25.4383 29.6249 25.218 29.5382 25.0203 29.2413C24.5766 28.5765 24.0867 27.9421 23.6141 27.296C23.5531 27.2124 23.4898 27.1304 23.4109 27.0265C22.8516 27.7812 22.293 28.4999 21.7687 29.2476C21.5812 29.5148 21.3844 29.6312 21.0344 29.5366L23.1375 26.714L21.1797 24.1648C21.5164 24.0991 21.7492 24.1327 21.9555 24.4343C22.4109 25.0999 22.9133 25.7335 23.4141 26.4038C23.918 25.7359 24.4141 25.1015 24.8828 24.4421C25.0711 24.1749 25.2734 24.0734 25.6117 24.1718C25.3555 24.5116 25.1047 24.846 24.8523 25.1781C24.5117 25.6257 24.1773 26.0788 23.8242 26.5171C23.6984 26.6734 23.7187 26.7749 23.8312 26.9226C24.4844 27.7812 25.1297 28.6484 25.7945 29.5343ZM16.0023 26.6671C16.0586 26.3851 16.0961 26.0976 16.1742 25.821C16.643 24.1468 18.5648 23.4507 19.8852 24.4882C20.6586 25.0968 20.8508 25.9546 20.8125 26.9218H16.4531C16.3875 28.657 17.6367 29.7046 19.2289 29.1702C19.7875 28.9827 20.1164 28.5452 20.2812 27.9984C20.3648 27.7241 20.5031 27.6812 20.7609 27.7593C20.6289 28.4437 20.3297 29.0156 19.7047 29.3734C18.7672 29.9093 17.4289 29.7359 16.725 28.9913C16.3094 28.5538 16.1328 28.0093 16.0547 27.421C16.043 27.3273 16.0187 27.2351 16 27.1421C16.0016 26.9838 16.0023 26.8254 16.0023 26.6671ZM16.4609 26.5507H20.4008C20.375 25.296 19.5938 24.4046 18.5258 24.3968C17.3539 24.3874 16.5117 25.2577 16.4609 26.5507Z"/>
</mask>
<path d="M25.7945 29.5343C25.4383 29.6249 25.218 29.5382 25.0203 29.2413C24.5766 28.5765 24.0867 27.9421 23.6141 27.296C23.5531 27.2124 23.4898 27.1304 23.4109 27.0265C22.8516 27.7812 22.293 28.4999 21.7687 29.2476C21.5812 29.5148 21.3844 29.6312 21.0344 29.5366L23.1375 26.714L21.1797 24.1648C21.5164 24.0991 21.7492 24.1327 21.9555 24.4343C22.4109 25.0999 22.9133 25.7335 23.4141 26.4038C23.918 25.7359 24.4141 25.1015 24.8828 24.4421C25.0711 24.1749 25.2734 24.0734 25.6117 24.1718C25.3555 24.5116 25.1047 24.846 24.8523 25.1781C24.5117 25.6257 24.1773 26.0788 23.8242 26.5171C23.6984 26.6734 23.7187 26.7749 23.8312 26.9226C24.4844 27.7812 25.1297 28.6484 25.7945 29.5343ZM16.0023 26.6671C16.0586 26.3851 16.0961 26.0976 16.1742 25.821C16.643 24.1468 18.5648 23.4507 19.8852 24.4882C20.6586 25.0968 20.8508 25.9546 20.8125 26.9218H16.4531C16.3875 28.657 17.6367 29.7046 19.2289 29.1702C19.7875 28.9827 20.1164 28.5452 20.2812 27.9984C20.3648 27.7241 20.5031 27.6812 20.7609 27.7593C20.6289 28.4437 20.3297 29.0156 19.7047 29.3734C18.7672 29.9093 17.4289 29.7359 16.725 28.9913C16.3094 28.5538 16.1328 28.0093 16.0547 27.421C16.043 27.3273 16.0187 27.2351 16 27.1421C16.0016 26.9838 16.0023 26.8254 16.0023 26.6671ZM16.4609 26.5507H20.4008C20.375 25.296 19.5938 24.4046 18.5258 24.3968C17.3539 24.3874 16.5117 25.2577 16.4609 26.5507Z" fill="black"/>
<path d="M25.7945 29.5343L26.0411 30.5034L27.4946 30.1337L26.5944 28.9341L25.7945 29.5343ZM25.0203 29.2413L25.8527 28.6871L25.8521 28.6862L25.0203 29.2413ZM23.6141 27.296L22.806 27.8851L22.807 27.8865L23.6141 27.296ZM23.4109 27.0265L24.2073 26.4217L23.4012 25.3602L22.6076 26.431L23.4109 27.0265ZM21.7687 29.2476L22.5873 29.822L22.5875 29.8217L21.7687 29.2476ZM21.0344 29.5366L20.2325 28.9392L19.3537 30.1186L20.7736 30.5021L21.0344 29.5366ZM23.1375 26.714L23.9394 27.3115L24.3914 26.7049L23.9306 26.1049L23.1375 26.714ZM21.1797 24.1648L20.9884 23.1832L19.4024 23.4923L20.3866 24.7739L21.1797 24.1648ZM21.9555 24.4343L21.1301 24.9988L21.1302 24.999L21.9555 24.4343ZM23.4141 26.4038L22.6129 27.0023L23.4102 28.0695L24.2124 27.0061L23.4141 26.4038ZM24.8828 24.4421L25.6979 25.0215L25.7002 25.0181L24.8828 24.4421ZM25.6117 24.1718L26.4102 24.7739L27.2828 23.6166L25.8911 23.2116L25.6117 24.1718ZM24.8523 25.1781L25.6482 25.7836L25.6485 25.7831L24.8523 25.1781ZM23.8242 26.5171L23.0455 25.8897L23.0453 25.89L23.8242 26.5171ZM23.8312 26.9226L24.6271 26.3172L24.6267 26.3165L23.8312 26.9226ZM16.0023 26.6671L15.0217 26.4715L15.0023 26.5684V26.6671H16.0023ZM16.1742 25.821L17.1366 26.0929L17.1372 26.0906L16.1742 25.821ZM19.8852 24.4882L20.5035 23.7023L20.503 23.7019L19.8852 24.4882ZM20.8125 26.9218V27.9218H21.7737L21.8117 26.9614L20.8125 26.9218ZM16.4531 26.9218V25.9218H15.4902L15.4538 26.884L16.4531 26.9218ZM19.2289 29.1702L19.5471 30.1183L19.5471 30.1183L19.2289 29.1702ZM20.2812 27.9984L19.3247 27.7068L19.3238 27.7098L20.2812 27.9984ZM20.7609 27.7593L21.7428 27.9487L21.9136 27.0637L21.0509 26.8023L20.7609 27.7593ZM19.7047 29.3734L20.201 30.2415L20.2015 30.2412L19.7047 29.3734ZM16.725 28.9913L17.4517 28.3043L17.45 28.3026L16.725 28.9913ZM16.0547 27.421L15.0624 27.5451L15.0634 27.5527L16.0547 27.421ZM16 27.1421L15 27.1322L14.999 27.2371L15.0197 27.3398L16 27.1421ZM16.4609 26.5507L15.4617 26.5115L15.4209 27.5507H16.4609V26.5507ZM20.4008 26.5507V27.5507H21.4215L21.4006 26.5302L20.4008 26.5507ZM18.5258 24.3968L18.5178 25.3968L18.5185 25.3968L18.5258 24.3968ZM25.7945 29.5343L25.548 28.5652C25.4848 28.5812 25.568 28.5468 25.7046 28.5989C25.8426 28.6516 25.8846 28.7351 25.8527 28.6871L25.0203 29.2413L24.1879 29.7955C24.3536 30.0444 24.6047 30.3198 24.9913 30.4674C25.3765 30.6144 25.748 30.578 26.0411 30.5034L25.7945 29.5343ZM25.0203 29.2413L25.8521 28.6862C25.3925 27.9976 24.8732 27.3236 24.4211 26.7056L23.6141 27.296L22.807 27.8865C23.3002 28.5607 23.7607 29.1554 24.1886 29.7965L25.0203 29.2413ZM23.6141 27.296L24.4221 26.707C24.3536 26.6129 24.28 26.5174 24.2073 26.4217L23.4109 27.0265L22.6145 27.6313C22.6997 27.7434 22.7527 27.812 22.806 27.8851L23.6141 27.296ZM23.4109 27.0265L22.6076 26.431C22.0669 27.1605 21.4836 27.9124 20.95 28.6735L21.7687 29.2476L22.5875 29.8217C23.1023 29.0875 23.6362 28.4019 24.2143 27.622L23.4109 27.0265ZM21.7687 29.2476L20.9502 28.6732C20.9026 28.741 20.9363 28.6662 21.0633 28.6109C21.1295 28.5821 21.1939 28.5706 21.245 28.5693C21.2914 28.5681 21.3115 28.5757 21.2951 28.5712L21.0344 29.5366L20.7736 30.5021C21.0978 30.5896 21.4793 30.6111 21.8617 30.4446C22.2215 30.288 22.4474 30.0213 22.5873 29.822L21.7687 29.2476ZM21.0344 29.5366L21.8363 30.1341L23.9394 27.3115L23.1375 26.714L22.3356 26.1165L20.2325 28.9392L21.0344 29.5366ZM23.1375 26.714L23.9306 26.1049L21.9728 23.5557L21.1797 24.1648L20.3866 24.7739L22.3444 27.3231L23.1375 26.714ZM21.1797 24.1648L21.371 25.1463C21.4215 25.1365 21.4379 25.1365 21.4328 25.1366C21.4249 25.1368 21.3853 25.1365 21.3287 25.1195C21.2684 25.1014 21.2144 25.0719 21.1728 25.0389C21.1349 25.0088 21.1226 24.9879 21.1301 24.9988L21.9555 24.4343L22.7809 23.8698C22.5821 23.5791 22.2998 23.323 21.9043 23.2042C21.5452 23.0962 21.2108 23.1399 20.9884 23.1832L21.1797 24.1648ZM21.9555 24.4343L21.1302 24.999C21.601 25.6871 22.1354 26.3631 22.6129 27.0023L23.4141 26.4038L24.2152 25.8053C23.6912 25.1039 23.2209 24.5128 22.7808 23.8696L21.9555 24.4343ZM23.4141 26.4038L24.2124 27.0061C24.7023 26.3566 25.2182 25.6962 25.6978 25.0215L24.8828 24.4421L24.0678 23.8627C23.6099 24.5068 23.1336 25.1151 22.6157 25.8016L23.4141 26.4038ZM24.8828 24.4421L25.7002 25.0181C25.7389 24.9633 25.6983 25.0441 25.5619 25.0985C25.4099 25.1592 25.304 25.1237 25.3323 25.132L25.6117 24.1718L25.8911 23.2116C25.5811 23.1214 25.205 23.0875 24.8202 23.2412C24.4509 23.3886 24.215 23.6537 24.0654 23.8661L24.8828 24.4421ZM25.6117 24.1718L24.8133 23.5697C24.5549 23.9124 24.307 24.2429 24.0562 24.573L24.8523 25.1781L25.6485 25.7831C25.9024 25.4491 26.156 25.1109 26.4102 24.7739L25.6117 24.1718ZM24.8523 25.1781L24.0565 24.5725C23.704 25.0358 23.387 25.4658 23.0455 25.8897L23.8242 26.5171L24.6029 27.1445C24.9676 26.6918 25.3194 26.2156 25.6482 25.7836L24.8523 25.1781ZM23.8242 26.5171L23.0453 25.89C22.9082 26.0603 22.7175 26.3637 22.7398 26.7769C22.7601 27.1535 22.952 27.4187 23.0358 27.5286L23.8312 26.9226L24.6267 26.3165C24.598 26.2789 24.7235 26.4194 24.7369 26.6692C24.7524 26.9557 24.6144 27.1302 24.6032 27.1442L23.8242 26.5171ZM23.8312 26.9226L23.0354 27.528C23.6859 28.3832 24.3266 29.2443 24.9947 30.1345L25.7945 29.5343L26.5944 28.9341C25.9328 28.0525 25.2829 27.1792 24.6271 26.3172L23.8312 26.9226ZM16.0023 26.6671L16.983 26.8627C17.0576 26.4888 17.0717 26.3224 17.1366 26.0929L16.1742 25.821L15.2119 25.5492C15.1205 25.8728 15.0596 26.2814 15.0217 26.4715L16.0023 26.6671ZM16.1742 25.821L17.1372 26.0906C17.4333 25.0332 18.5632 24.7212 19.2673 25.2745L19.8852 24.4882L20.503 23.7019C18.5665 22.1802 15.8527 23.2604 15.2113 25.5514L16.1742 25.821ZM19.8852 24.4882L19.2668 25.2741C19.6783 25.5979 19.8457 26.0635 19.8133 26.8823L20.8125 26.9218L21.8117 26.9614C21.8559 25.8457 21.6389 24.5957 20.5035 23.7023L19.8852 24.4882ZM20.8125 26.9218V25.9218H16.4531V26.9218V27.9218H20.8125V26.9218ZM16.4531 26.9218L15.4538 26.884C15.4118 27.9945 15.791 29.02 16.5858 29.6708C17.3946 30.3331 18.4764 30.4776 19.5471 30.1183L19.2289 29.1702L18.9107 28.2222C18.3892 28.3973 18.0504 28.2851 17.8529 28.1234C17.6414 27.9502 17.4288 27.5842 17.4524 26.9596L16.4531 26.9218ZM19.2289 29.1702L19.5471 30.1183C20.4942 29.8004 21.008 29.0522 21.2387 28.287L20.2812 27.9984L19.3238 27.7098C19.2248 28.0383 19.0808 28.1651 18.9107 28.2222L19.2289 29.1702ZM20.2812 27.9984L21.2378 28.29C21.2496 28.2512 21.1846 28.5133 20.8709 28.6564C20.7279 28.7217 20.6029 28.7273 20.5361 28.7237C20.4759 28.7205 20.4477 28.7093 20.4709 28.7163L20.7609 27.7593L21.0509 26.8023C20.878 26.7499 20.4697 26.6411 20.0406 26.837C19.5725 27.0506 19.3965 27.4713 19.3247 27.7068L20.2812 27.9984ZM20.7609 27.7593L19.779 27.5699C19.6826 28.0695 19.5025 28.3368 19.2078 28.5055L19.7047 29.3734L20.2015 30.2412C21.1568 29.6943 21.5752 28.8178 21.7428 27.9487L20.7609 27.7593ZM19.7047 29.3734L19.2084 28.5052C18.643 28.8284 17.8165 28.6903 17.4517 28.3043L16.725 28.9913L15.9983 29.6783C17.0413 30.7815 18.8914 30.9902 20.201 30.2415L19.7047 29.3734ZM16.725 28.9913L17.45 28.3026C17.2361 28.0775 17.1095 27.7678 17.046 27.2894L16.0547 27.421L15.0634 27.5527C15.1561 28.2508 15.3826 29.0302 16 29.6801L16.725 28.9913ZM16.0547 27.421L17.047 27.297C17.0293 27.1558 16.9832 26.9592 16.9803 26.9444L16 27.1421L15.0197 27.3398C15.0543 27.511 15.0566 27.4988 15.0624 27.5451L16.0547 27.421ZM16 27.1421L17 27.152C17.0015 26.9904 17.0023 26.8287 17.0023 26.6671H16.0023H15.0023C15.0023 26.8222 15.0016 26.9772 15 27.1322L16 27.1421ZM16.4609 26.5507V27.5507H20.4008V26.5507V25.5507H16.4609V26.5507ZM20.4008 26.5507L21.4006 26.5302C21.3666 24.8784 20.276 23.4096 18.5331 23.3968L18.5258 24.3968L18.5185 25.3968C18.9115 25.3997 19.3834 25.7137 19.401 26.5713L20.4008 26.5507ZM18.5258 24.3968L18.5338 23.3968C17.6858 23.3901 16.9146 23.7072 16.352 24.2924C15.7952 24.8717 15.4953 25.657 15.4617 26.5115L16.4609 26.5507L17.4602 26.59C17.4774 26.1515 17.624 25.8551 17.7939 25.6784C17.9581 25.5075 18.1939 25.3942 18.5178 25.3968L18.5258 24.3968Z" fill="black" mask="url(#path-2-inside-1_2_48)"/>
</g>
<defs>
<clipPath id="clip0_2_48">
<rect width="27.6841" height="30.9707" fill="white" transform="translate(0.315918 0.0292969)"/>
</clipPath>
</defs>
</svg>
