<svg width="24" height="24" viewBox="0 0 24 24" fill="none" xmlns="http://www.w3.org/2000/svg">
<g clip-path="url(#clip0_2_62)">
<path d="M16.88 6.66682C16.88 7.84903 15.9183 8.81119 14.7356 8.81119H12.5225V4.52246H14.7356C15.9183 4.52246 16.88 5.48461 16.88 6.66682Z" fill="black"/>
<path d="M14.7357 9.85564H14.6669C13.4842 9.85564 12.5225 10.8178 12.5225 12C12.5225 13.1827 13.4842 14.1444 14.6669 14.1444H14.7357C15.9184 14.1444 16.8801 13.1827 16.8801 12C16.8801 10.8178 15.9184 9.85564 14.7357 9.85564ZM9.2643 4.52236C8.08162 4.52236 7.11994 5.48451 7.11994 6.66672C7.11994 7.84893 8.08162 8.81108 9.2643 8.81108H11.4775V4.52236H9.2643ZM9.2643 4.52236C8.08162 4.52236 7.11994 5.48451 7.11994 6.66672C7.11994 7.84893 8.08162 8.81108 9.2643 8.81108H11.4775V4.52236H9.2643ZM14.7357 9.85564H14.6669C13.4842 9.85564 12.5225 10.8178 12.5225 12C12.5225 13.1827 13.4842 14.1444 14.6669 14.1444H14.7357C15.9184 14.1444 16.8801 13.1827 16.8801 12C16.8801 10.8178 15.9184 9.85564 14.7357 9.85564ZM9.2643 9.85564C8.08162 9.85564 7.11994 10.8178 7.11994 12C7.11994 13.1827 8.08162 14.1444 9.2643 14.1444H11.4775V9.85564H9.2643ZM9.2643 4.52236C8.08162 4.52236 7.11994 5.48451 7.11994 6.66672C7.11994 7.84893 8.08162 8.81108 9.2643 8.81108H11.4775V4.52236H9.2643ZM9.2643 4.52236C8.08162 4.52236 7.11994 5.48451 7.11994 6.66672C7.11994 7.84893 8.08162 8.81108 9.2643 8.81108H11.4775V4.52236H9.2643ZM9.2643 9.85564C8.08162 9.85564 7.11994 10.8178 7.11994 12C7.11994 13.1827 8.08162 14.1444 9.2643 14.1444H11.4775V9.85564H9.2643ZM14.7357 9.85564H14.6669C13.4842 9.85564 12.5225 10.8178 12.5225 12C12.5225 13.1827 13.4842 14.1444 14.6669 14.1444H14.7357C15.9184 14.1444 16.8801 13.1827 16.8801 12C16.8801 10.8178 15.9184 9.85564 14.7357 9.85564ZM14.7357 9.85564H14.6669C13.4842 9.85564 12.5225 10.8178 12.5225 12C12.5225 13.1827 13.4842 14.1444 14.6669 14.1444H14.7357C15.9184 14.1444 16.8801 13.1827 16.8801 12C16.8801 10.8178 15.9184 9.85564 14.7357 9.85564ZM7.11994 17.3333C7.11994 18.5155 8.08958 19.4776 9.28115 19.4776C10.4924 19.4776 11.4775 18.5 11.4775 17.2986V15.1889H9.2643C8.08162 15.1889 7.11994 16.1511 7.11994 17.3333ZM7.11994 12C7.11994 13.1827 8.08162 14.1444 9.2643 14.1444H11.4775V9.85564H9.2643C8.08162 9.85564 7.11994 10.8178 7.11994 12ZM7.11994 6.66672C7.11994 7.84893 8.08162 8.81108 9.2643 8.81108H11.4775V4.52236H9.2643C8.08162 4.52236 7.11994 5.48451 7.11994 6.66672ZM21.4066 0H2.59337C1.16114 0 0 1.16114 0 2.59337V21.4066C0 22.8389 1.16114 24 2.59337 24H21.4066C22.8389 24 24 22.8389 24 21.4066V2.59337C24 1.16114 22.8389 0 21.4066 0ZM17.9246 12C17.9246 13.7586 16.4943 15.1889 14.7357 15.1889H14.6669C13.8419 15.1889 13.089 14.8738 12.5225 14.3583V17.2986C12.5225 19.0759 11.0683 20.5222 9.28115 20.5222C7.51323 20.5222 6.07538 19.0918 6.07538 17.3333C6.07538 16.219 6.64939 15.2367 7.51744 14.6669C6.64939 14.0966 6.07538 13.1143 6.07538 12C6.07538 10.8861 6.64939 9.90386 7.51744 9.33359C6.64939 8.76332 6.07538 7.78104 6.07538 6.66672C6.07538 4.90815 7.50573 3.4778 9.2643 3.4778H14.7357C16.4943 3.4778 17.9246 4.90815 17.9246 6.66672C17.9246 7.78104 17.3506 8.76332 16.4826 9.33359C17.3506 9.90386 17.9246 10.8861 17.9246 12ZM14.7357 9.85564H14.6669C13.4842 9.85564 12.5225 10.8178 12.5225 12C12.5225 13.1827 13.4842 14.1444 14.6669 14.1444H14.7357C15.9184 14.1444 16.8801 13.1827 16.8801 12C16.8801 10.8178 15.9184 9.85564 14.7357 9.85564ZM7.11994 17.3333C7.11994 18.5155 8.08958 19.4776 9.28115 19.4776C10.4924 19.4776 11.4775 18.5 11.4775 17.2986V15.1889H9.2643C8.08162 15.1889 7.11994 16.1511 7.11994 17.3333ZM7.11994 12C7.11994 13.1827 8.08162 14.1444 9.2643 14.1444H11.4775V9.85564H9.2643C8.08162 9.85564 7.11994 10.8178 7.11994 12ZM7.11994 6.66672C7.11994 7.84893 8.08162 8.81108 9.2643 8.81108H11.4775V4.52236H9.2643C8.08162 4.52236 7.11994 5.48451 7.11994 6.66672ZM9.2643 4.52236C8.08162 4.52236 7.11994 5.48451 7.11994 6.66672C7.11994 7.84893 8.08162 8.81108 9.2643 8.81108H11.4775V4.52236H9.2643ZM9.2643 9.85564C8.08162 9.85564 7.11994 10.8178 7.11994 12C7.11994 13.1827 8.08162 14.1444 9.2643 14.1444H11.4775V9.85564H9.2643ZM9.2643 15.1889C8.08162 15.1889 7.11994 16.1511 7.11994 17.3333C7.11994 18.5155 8.08958 19.4776 9.28115 19.4776C10.4924 19.4776 11.4775 18.5 11.4775 17.2986V15.1889H9.2643ZM14.7357 9.85564H14.6669C13.4842 9.85564 12.5225 10.8178 12.5225 12C12.5225 13.1827 13.4842 14.1444 14.6669 14.1444H14.7357C15.9184 14.1444 16.8801 13.1827 16.8801 12C16.8801 10.8178 15.9184 9.85564 14.7357 9.85564ZM14.7357 9.85564H14.6669C13.4842 9.85564 12.5225 10.8178 12.5225 12C12.5225 13.1827 13.4842 14.1444 14.6669 14.1444H14.7357C15.9184 14.1444 16.8801 13.1827 16.8801 12C16.8801 10.8178 15.9184 9.85564 14.7357 9.85564ZM9.2643 9.85564C8.08162 9.85564 7.11994 10.8178 7.11994 12C7.11994 13.1827 8.08162 14.1444 9.2643 14.1444H11.4775V9.85564H9.2643ZM9.2643 4.52236C8.08162 4.52236 7.11994 5.48451 7.11994 6.66672C7.11994 7.84893 8.08162 8.81108 9.2643 8.81108H11.4775V4.52236H9.2643ZM9.2643 4.52236C8.08162 4.52236 7.11994 5.48451 7.11994 6.66672C7.11994 7.84893 8.08162 8.81108 9.2643 8.81108H11.4775V4.52236H9.2643ZM9.2643 9.85564C8.08162 9.85564 7.11994 10.8178 7.11994 12C7.11994 13.1827 8.08162 14.1444 9.2643 14.1444H11.4775V9.85564H9.2643ZM14.7357 9.85564H14.6669C13.4842 9.85564 12.5225 10.8178 12.5225 12C12.5225 13.1827 13.4842 14.1444 14.6669 14.1444H14.7357C15.9184 14.1444 16.8801 13.1827 16.8801 12C16.8801 10.8178 15.9184 9.85564 14.7357 9.85564ZM9.2643 4.52236C8.08162 4.52236 7.11994 5.48451 7.11994 6.66672C7.11994 7.84893 8.08162 8.81108 9.2643 8.81108H11.4775V4.52236H9.2643ZM9.2643 4.52236C8.08162 4.52236 7.11994 5.48451 7.11994 6.66672C7.11994 7.84893 8.08162 8.81108 9.2643 8.81108H11.4775V4.52236H9.2643ZM14.7357 9.85564H14.6669C13.4842 9.85564 12.5225 10.8178 12.5225 12C12.5225 13.1827 13.4842 14.1444 14.6669 14.1444H14.7357C15.9184 14.1444 16.8801 13.1827 16.8801 12C16.8801 10.8178 15.9184 9.85564 14.7357 9.85564Z" fill="black"/>
</g>
<defs>
<clipPath id="clip0_2_62">
<rect width="24" height="24" fill="white"/>
</clipPath>
</defs>
</svg>
