<svg width="101" height="103" viewBox="0 0 101 103" fill="none" xmlns="http://www.w3.org/2000/svg">
<path d="M91.031 13.8938C93.1548 13.8938 94.8733 12.1753 94.8733 10.0515C94.8733 7.92771 93.1548 6.20923 91.031 6.20923C88.9072 6.20923 87.1887 7.92771 87.1887 10.0515C87.1887 12.1753 88.9234 13.8938 91.031 13.8938ZM91.031 8.94908C91.6471 8.94908 92.1496 9.45165 92.1496 10.0677C92.1496 10.6838 91.6471 11.1864 91.031 11.1864C90.3987 11.1864 89.9124 10.7 89.9124 10.0677C89.9124 9.43544 90.4149 8.94908 91.031 8.94908Z" fill="#BBBAB9"/>
<path d="M95.2949 0H16.3094C13.3102 0 10.8621 2.44803 10.8621 5.44727V13.7641H5.44727C2.44803 13.7641 0 16.2121 0 19.2114V87.513C0 90.5123 2.44803 92.9603 5.44727 92.9603H41.6489V100.839C41.6489 101.585 42.265 102.201 43.0108 102.201H68.5935C69.3392 102.201 69.9553 101.585 69.9553 100.839V92.9603H84.4327C87.432 92.9603 89.88 90.5123 89.88 87.513V79.1962H95.2949C98.2941 79.1962 100.742 76.7482 100.742 73.7489V5.44727C100.742 2.44803 98.2941 0 95.2949 0ZM13.5858 5.44727C13.5858 3.93955 14.8179 2.72364 16.3094 2.72364H95.2949C96.8026 2.72364 98.0185 3.95576 98.0185 5.44727V17.3956H46.3342L40.2547 11.0891C39.7845 10.6027 39.1361 10.3271 38.4714 10.3271H25.0802C23.7183 10.3271 22.5997 11.4458 22.5997 12.8076V17.3956H13.5858V5.44727ZM5.44727 90.2529C3.93955 90.2529 2.72364 89.0208 2.72364 87.5292V19.2114C2.72364 17.7036 3.95576 16.4877 5.44727 16.4877H10.8621V73.7652C10.8621 76.7644 13.3102 79.2124 16.3094 79.2124H45.8803C46.4153 80.25 46.6585 81.4173 46.5612 82.617H44.4536C42.8973 82.617 41.6489 83.8815 41.6489 85.4217V90.2529H5.44727ZM54.4565 61.7358C54.7321 61.2494 55.2347 60.9414 55.8021 60.9414C56.6452 60.9414 57.3261 61.6223 57.3261 62.4653C57.3261 63.0165 57.0342 63.5191 56.5641 63.7947C56.0453 64.1027 55.4292 64.0703 54.797 63.7136C54.7159 63.665 54.6349 63.6002 54.6024 63.5191C54.0836 62.6923 54.2944 62.0438 54.4565 61.7358ZM54.4403 58.4771C53.4514 58.8176 52.6083 59.4823 52.0896 60.4226C51.3114 61.8168 51.4086 63.5191 52.3165 64.9782C52.6083 65.4321 52.9974 65.805 53.4676 66.0806C54.2133 66.5021 55.0239 66.7291 55.8183 66.7291C56.5641 66.7291 57.2936 66.5345 57.9421 66.1617C59.2391 65.3997 60.0497 63.9892 60.0497 62.4815C60.0497 60.6171 58.8338 59.0445 57.1639 58.4771V51.4735L69.2095 73.2139C69.1933 73.2302 69.1771 73.2626 69.1285 73.2788C64.8647 74.3812 62.0762 78.3694 62.3032 82.617H49.3173C49.5605 78.3532 46.7558 74.365 42.4109 73.1491L54.4403 51.4735V58.4771ZM67.2317 99.4776H44.3726L44.4536 85.3244H67.1506C67.1992 85.3244 67.2317 85.3568 67.2317 85.4055V99.4776ZM87.1564 87.513C87.1564 89.0208 85.9242 90.2367 84.4327 90.2367H69.9553V85.4055C69.9553 83.8491 68.6908 82.6008 67.1506 82.6008H65.043C64.9458 81.4011 65.2052 80.2338 65.7239 79.1962H87.1564V87.513ZM95.2949 76.4888H68.3665C68.8042 76.2456 69.2744 76.0348 69.7932 75.9052C70.6524 75.6782 71.3496 75.0783 71.7062 74.2677C72.0467 73.4733 71.998 72.5817 71.5765 71.8197L57.6341 46.7071C57.2774 46.0424 56.5803 45.6209 55.8183 45.6209C55.0402 45.6371 54.343 46.0262 53.9702 46.6909L40.0115 71.8197C39.59 72.5817 39.5576 73.4895 39.898 74.2839C40.2385 75.0945 40.9356 75.6782 41.7948 75.9052C42.3136 76.0348 42.7676 76.2456 43.2215 76.4888H16.3094C14.8017 76.4888 13.5858 75.2567 13.5858 73.7652V20.1192H22.8267C24.1885 20.1192 25.3071 19.0006 25.3071 17.6388V13.0508H38.3579L44.4374 19.3573C44.9076 19.8436 45.5561 20.1192 46.2208 20.1192H98.0185V73.7489C98.0185 75.2567 96.8026 76.4888 95.2949 76.4888Z" fill="#BBBAB9"/>
<path d="M81.7578 13.8938C83.8816 13.8938 85.6001 12.1753 85.6001 10.0515C85.6001 7.92771 83.8816 6.20923 81.7578 6.20923C79.634 6.20923 77.9155 7.92771 77.9155 10.0515C77.9155 12.1753 79.634 13.8938 81.7578 13.8938ZM81.7578 8.94908C82.3739 8.94908 82.8764 9.45165 82.8764 10.0677C82.8764 10.6838 82.3739 11.1864 81.7578 11.1864C81.1255 11.1864 80.6392 10.7 80.6392 10.0677C80.6392 9.43544 81.1417 8.94908 81.7578 8.94908Z" fill="#BBBAB9"/>
<path d="M72.4683 13.8938C74.592 13.8938 76.3105 12.1753 76.3105 10.0515C76.3105 7.92771 74.592 6.20923 72.4683 6.20923C70.3445 6.20923 68.626 7.92771 68.626 10.0515C68.626 12.1753 70.3445 13.8938 72.4683 13.8938ZM72.4683 8.94908C73.0843 8.94908 73.5869 9.45165 73.5869 10.0677C73.5869 10.6838 73.0843 11.1864 72.4683 11.1864C71.836 11.1864 71.3496 10.7 71.3496 10.0677C71.3496 9.43544 71.8522 8.94908 72.4683 8.94908Z" fill="#BBBAB9"/>
<path d="M82.0495 31.9865C81.2551 32.7809 80.7525 33.7861 80.558 34.8561H61.5087V32.7161C61.5087 31.257 60.3252 30.0735 58.8661 30.0735H52.7217C51.2627 30.0735 50.0792 31.257 50.0792 32.7161V34.8561H31.0461C30.8678 33.8023 30.3652 32.7971 29.5546 31.9703C27.4957 29.9438 23.9777 29.9762 21.9674 31.9865C20.946 33.0079 20.3948 34.3535 20.3948 35.7802C20.3948 37.223 20.9622 38.5848 21.9674 39.5738C22.9887 40.6276 24.3505 41.1626 25.761 41.1626C26.6527 41.1626 27.5605 40.9518 28.4198 40.5141C29.3439 40.0439 30.1058 39.2658 30.5598 38.3092C30.6733 38.0661 30.7705 37.8229 30.8516 37.5797H44.0645C36.8825 41.0815 31.4677 47.6636 29.587 55.6076H27.4795C26.0204 55.6076 24.8369 56.7911 24.8369 58.2502V64.3945C24.8369 65.8536 26.0204 67.0371 27.4795 67.0371H33.6239C35.083 67.0371 36.2664 65.8536 36.2664 64.3945V58.2502C36.2664 56.7911 35.083 55.6076 33.6239 55.6076H32.3917C34.6614 47.0476 41.5192 40.3358 50.1278 38.2606V38.8442C50.1278 40.3033 51.3113 41.4868 52.7704 41.4868H58.9148C60.3739 41.4868 61.5574 40.3033 61.5574 38.8442V38.2606C70.1498 40.3358 77.0075 47.0476 79.2934 55.6076H78.1748C76.7157 55.6076 75.5322 56.7911 75.5322 58.2502V64.3945C75.5322 65.8536 76.7157 67.0371 78.1748 67.0371H84.3192C85.7783 67.0371 86.9617 65.8536 86.9617 64.3945V58.2502C86.9617 56.7911 85.7783 55.6076 84.3192 55.6076H82.0981C80.2013 47.6636 74.7864 41.0653 67.6207 37.5797H80.866C81.1254 38.3255 81.5469 39.0064 82.1143 39.5738C83.1357 40.6276 84.4975 41.1626 85.908 41.1626C86.7996 41.1626 87.7075 40.9518 88.5668 40.5141C89.4908 40.0439 90.2528 39.2658 90.7068 38.3092C91.7605 36.0882 91.3877 33.6726 89.7178 31.9703C87.594 29.96 84.076 29.9762 82.0495 31.9865ZM28.0793 37.1582C27.8848 37.5473 27.5605 37.8877 27.1714 38.0823C25.761 38.7956 24.5451 38.3417 23.8804 37.6445C23.3778 37.1582 23.1022 36.4935 23.1022 35.7802C23.1022 35.083 23.3778 34.4183 23.8804 33.8995C24.383 33.397 25.0477 33.1214 25.761 33.1214C26.4581 33.1214 27.139 33.397 27.6254 33.8833C28.4684 34.7588 28.6305 35.9747 28.0793 37.1582ZM33.5914 64.3135L27.5281 64.3945L27.447 58.3312H33.5104L33.5914 64.3135ZM84.2705 64.3135L78.2072 64.3945L78.1261 58.3312H84.1895L84.2705 64.3135ZM52.819 38.8605L52.7866 36.8177C52.819 36.6718 52.819 36.5259 52.8028 36.3638V36.3476C52.8028 36.2989 52.8352 36.2665 52.8352 36.2179C52.8352 36.1368 52.8028 36.072 52.7866 36.0071L52.738 32.8133H58.8013L58.8499 36.0071C58.8337 36.0882 58.8013 36.153 58.8013 36.2341C58.8013 36.2827 58.8175 36.3152 58.8337 36.3638V36.38C58.8013 36.5908 58.8175 36.7853 58.8661 36.9636L58.8986 38.7956L52.819 38.8605ZM88.1777 37.1582C87.9831 37.5473 87.6589 37.8877 87.2698 38.0823C85.8593 38.7956 84.6434 38.3417 83.9787 37.6445C83.4761 37.1582 83.2005 36.4935 83.2005 35.7802C83.2005 35.083 83.4761 34.4183 83.9787 33.8995C84.4813 33.397 85.146 33.1214 85.8593 33.1214C86.5564 33.1214 87.2374 33.397 87.7237 33.8833C88.5667 34.7588 88.7289 35.9747 88.1777 37.1582Z" fill="#BBBAB9"/>
</svg>
