<svg width="65" height="53" viewBox="0 0 65 53" fill="none" xmlns="http://www.w3.org/2000/svg">
<path d="M41.0878 14.9539H43.0343L48.5821 9.4062L48.8546 7.05095C45.6765 4.24591 41.8358 2.29735 37.6952 1.38935C33.5547 0.481338 29.251 0.643854 25.1907 1.86154C21.1304 3.07923 17.4476 5.31189 14.4901 8.34862C11.5326 11.3854 9.39804 15.1259 8.28809 19.2169C8.90612 18.9637 9.59071 18.9226 10.2346 19.1002L21.3301 17.2702C21.3301 17.2702 21.8946 16.3359 22.1866 16.3944C24.564 13.7835 27.8494 12.1799 31.3705 11.9121C34.8915 11.6443 38.3817 12.7325 41.1266 14.9539H41.0878Z" fill="black"/>
<path d="M56.4849 19.2171C55.2095 14.5213 52.5915 10.2999 48.9519 7.07031L41.1654 14.8568C42.7882 16.1827 44.0886 17.8598 44.9688 19.7616C45.8489 21.6633 46.2857 23.7401 46.2461 25.8353V27.2176C47.1611 27.2098 48.0686 27.3833 48.9162 27.7281C49.7637 28.0728 50.5346 28.582 51.1844 29.2263C51.8342 29.8706 52.3499 30.6371 52.7018 31.4817C53.0538 32.3263 53.235 33.2323 53.235 34.1473C53.235 35.0623 53.0538 35.9683 52.7018 36.8129C52.3499 37.6575 51.8342 38.4241 51.1844 39.0683C50.5346 39.7126 49.7637 40.2218 48.9162 40.5666C48.0686 40.9113 47.1611 41.0848 46.2461 41.0771H32.3864L31.0044 42.4786V50.7906L32.3864 52.1726H46.2461C50.1164 52.2027 53.8936 50.9863 57.0189 48.7034C60.1443 46.4204 62.4518 43.1921 63.6002 39.496C64.7485 35.7999 64.6767 31.8323 63.3953 28.1802C62.1139 24.5281 59.6908 21.3854 56.4849 19.2171Z" fill="black"/>
<path d="M18.5075 52.0947H32.367V40.9992H18.5075C17.5201 40.9987 16.5442 40.7862 15.646 40.3762L13.6995 40.9797L8.11273 46.5272L7.62598 48.474C10.7588 50.8399 14.5817 52.112 18.5075 52.0947Z" fill="black"/>
<path d="M18.5075 16.1024C14.7522 16.1248 11.0977 17.3196 8.05438 19.5198C5.01107 21.72 2.73094 24.8157 1.53245 28.3747C0.333955 31.9337 0.276957 35.7781 1.36942 39.371C2.46187 42.964 4.64923 46.126 7.62598 48.4154L15.6655 40.3762C14.6437 39.9147 13.7492 39.2121 13.0586 38.3289C12.3681 37.4456 11.9021 36.408 11.7007 35.3051C11.4994 34.2022 11.5686 33.0669 11.9025 31.9966C12.2364 30.9263 12.825 29.953 13.6178 29.1602C14.4106 28.3675 15.3839 27.7789 16.4542 27.445C17.5244 27.1111 18.6598 27.0418 19.7627 27.2432C20.8656 27.4445 21.9032 27.9105 22.7865 28.601C23.6697 29.2916 24.3722 30.1861 24.8337 31.2079L32.8732 23.1684C31.1859 20.9624 29.0111 19.1767 26.5189 17.9509C24.0267 16.7251 21.2848 16.0924 18.5075 16.1024Z" fill="black"/>
</svg>
