<svg width="28" height="28" viewBox="0 0 28 28" fill="none" xmlns="http://www.w3.org/2000/svg">
<path d="M1.46676 12.1201L9.17343 4.40009L11.4268 6.66676C11.1068 7.80009 11.6268 9.04009 12.6668 9.64009V17.0268C11.8668 17.4801 11.3334 18.3468 11.3334 19.3334C11.3334 20.0407 11.6144 20.7189 12.1145 21.219C12.6146 21.7191 13.2928 22.0001 14.0001 22.0001C14.7073 22.0001 15.3856 21.7191 15.8857 21.219C16.3858 20.7189 16.6668 20.0407 16.6668 19.3334C16.6668 18.3468 16.1334 17.4801 15.3334 17.0268V10.5468L18.0934 13.3334C18.0001 13.5334 18.0001 13.7601 18.0001 14.0001C18.0001 14.7073 18.281 15.3856 18.7811 15.8857C19.2812 16.3858 19.9595 16.6668 20.6668 16.6668C21.374 16.6668 22.0523 16.3858 22.5524 15.8857C23.0525 15.3856 23.3334 14.7073 23.3334 14.0001C23.3334 13.2928 23.0525 12.6146 22.5524 12.1145C22.0523 11.6144 21.374 11.3334 20.6668 11.3334C20.4268 11.3334 20.2001 11.3334 20.0001 11.4268L16.5734 8.00009C16.739 7.38254 16.6748 6.72589 16.3928 6.15208C16.1108 5.57827 15.6301 5.1263 15.0401 4.88009C14.4668 4.66676 13.8668 4.61342 13.3334 4.76009L11.0668 2.50676L12.1201 1.46676C13.1601 0.413424 14.8401 0.413424 15.8801 1.46676L26.5334 12.1201C27.5868 13.1601 27.5868 14.8401 26.5334 15.8801L15.8801 26.5334C14.8401 27.5868 13.1601 27.5868 12.1201 26.5334L1.46676 15.8801C0.413424 14.8401 0.413424 13.1601 1.46676 12.1201Z" fill="black"/>
</svg>
