<svg width="20" height="20" viewBox="0 0 20 20" fill="none" xmlns="http://www.w3.org/2000/svg">
<path d="M10.0002 3.37L9.5602 3.31L4.0002 12.9C4.2402 13.11 4.4002 13.38 4.4702 13.68H15.5302C15.6002 13.38 15.7602 13.11 16.0002 12.9L10.4402 3.31L10.0002 3.37ZM4.6002 14.53L8.8802 17.06C9.1702 16.79 9.5702 16.63 10.0002 16.63C10.4302 16.63 10.8302 16.79 11.1202 17.06L15.4002 14.53H4.6002ZM10.0002 20C9.55463 20 9.12732 19.823 8.81226 19.5079C8.49719 19.1929 8.3202 18.7656 8.3202 18.32L8.4102 17.76L4.1102 15.21C3.8002 15.57 3.3502 15.79 2.8402 15.79C2.39463 15.79 1.96732 15.613 1.65226 15.2979C1.33719 14.9829 1.1602 14.5556 1.1602 14.11C1.1602 13.32 1.6902 12.66 2.4202 12.47V7.36C1.5902 7.25 0.950195 6.54 0.950195 5.68C0.950195 5.23444 1.12719 4.80712 1.44226 4.49206C1.75732 4.177 2.18463 4 2.6302 4C3.1802 4 3.6602 4.26 3.9702 4.66L8.3802 2.13L8.3202 1.68C8.3202 0.75 9.0702 0 10.0002 0C10.9302 0 11.6802 0.75 11.6802 1.68L11.6202 2.13L16.0302 4.66C16.3402 4.26 16.8202 4 17.3702 4C17.8158 4 18.2431 4.177 18.5581 4.49206C18.8732 4.80712 19.0502 5.23444 19.0502 5.68C19.0502 6.54 18.4102 7.25 17.5802 7.36V12.47C18.3102 12.66 18.8402 13.32 18.8402 14.11C18.8402 14.5556 18.6632 14.9829 18.3481 15.2979C18.0331 15.613 17.6058 15.79 17.1602 15.79C16.6502 15.79 16.2002 15.57 15.8902 15.21L11.5902 17.76L11.6802 18.32C11.6802 18.7656 11.5032 19.1929 11.1881 19.5079C10.8731 19.823 10.4458 20 10.0002 20ZM8.8002 2.86L4.3002 5.44L4.3202 5.68C4.3202 6.39 3.8802 7 3.2602 7.25L3.2902 12.5L8.8002 2.86ZM11.2002 2.86L16.7102 12.5L16.7402 7.25C16.1202 7 15.6802 6.39 15.6802 5.68L15.7002 5.44L11.2002 2.86Z" fill="black"/>
</svg>
