<svg width="16" height="16" viewBox="0 0 16 16" fill="none" xmlns="http://www.w3.org/2000/svg">
<path d="M9.4416 2.31017C9.15082 1.85248 9.24382 1.55067 9.40429 1.23907C9.54795 0.960136 9.60663 0.475386 9.09904 0.0939177C9.56638 -0.0781136 10.3039 0.226043 10.3165 0.783136C10.0454 1.15626 9.3046 1.30454 9.4416 2.31017ZM12.7969 12.595C12.5701 13.3304 12.6735 13.7217 11.6868 15.2487C13.4314 14.0709 14.2546 12.5503 14.5262 10.8244C14.6968 11.5441 14.7129 12.1969 14.6459 12.8137C16.0917 10.9104 17.0823 7.0722 13.7503 3.21401C13.6163 4.91942 11.9669 6.26223 10.0648 5.7357C13.3262 5.37617 13.5353 1.22898 10.7334 0.271355C10.7881 1.42511 9.21398 1.04729 9.67691 2.59079C8.07354 1.68364 4.57038 1.4972 3.17773 2.87348C2.45979 3.58298 1.96973 4.16976 1.07245 4.20854C0.331602 4.24054 -0.646711 5.44273 0.626164 6.05754C0.747727 6.56989 1.17498 6.86161 1.42273 6.91189C1.36107 7.82423 1.55516 7.35907 1.83954 6.96139C1.74398 8.11467 1.90148 7.6992 2.34716 7.10586C6.1181 6.34323 8.2006 9.41848 8.22416 11.3073C8.2076 10.9646 7.65976 10.566 7.36985 10.6758C7.17398 11.0908 6.96054 11.443 6.69713 11.6168C6.72466 11.3417 6.70588 11.0665 6.65588 10.7914C6.56901 11.1241 6.40548 11.4696 6.1441 11.8314C5.62416 11.8604 4.89651 11.4737 5.10816 10.8327C5.40676 10.2092 4.8211 10.0796 4.34929 10.2581C3.99476 10.3922 3.75516 10.7636 3.72241 10.8791C3.60413 11.2957 3.64304 12.2258 4.45198 12.8426C4.23991 12.8816 4.0222 12.9164 3.87416 13.0035C5.2502 13.8357 6.65473 13.5545 7.43685 13.2405C8.71741 12.7264 9.60063 11.3032 9.73882 10.2054C10.0943 11.7495 9.45748 13.4657 8.03013 14.3862C8.43795 14.4293 9.23616 14.153 10.0524 13.862C9.43535 14.6386 8.69776 15.3749 7.48948 15.9544C9.86941 15.7551 11.6102 14.5601 12.797 12.595" fill="black"/>
</svg>
