<svg width="28" height="28" viewBox="0 0 28 28" fill="none" xmlns="http://www.w3.org/2000/svg">
<path fill-rule="evenodd" clip-rule="evenodd" d="M13.4165 2.48955C13.7775 2.28115 14.2222 2.28115 14.5832 2.48955L23.6766 7.73955C24.0375 7.94797 24.2599 8.33311 24.2599 8.74992V19.2499C24.2599 19.6668 24.0375 20.0519 23.6766 20.2603L14.5832 25.5103C14.2222 25.7187 13.7775 25.7187 13.4165 25.5103L11.1433 24.1978C10.5853 23.8756 10.3941 23.1621 10.7162 22.6041C11.0384 22.0461 11.7519 21.8549 12.31 22.1771L13.9999 23.1528L21.9266 18.5764V9.4235L13.9999 4.84707L6.07332 9.4235V18.6189L7.90106 19.8139C7.90823 19.8132 7.9155 19.8125 7.92286 19.8117C8.15166 19.7888 8.43701 19.7445 8.70634 19.6637C8.98787 19.5793 9.16962 19.4792 9.26374 19.3945C9.32445 19.3399 9.33326 19.3147 9.33326 19.2499V10.4999C9.33326 9.85559 9.85559 9.33325 10.4999 9.33325C11.1443 9.33325 11.6665 9.85559 11.6665 10.4999V19.2499C11.6665 20.0602 11.3108 20.6912 10.8246 21.1288C10.3719 21.5364 9.82445 21.7643 9.3768 21.8986C8.91695 22.0366 8.47311 22.1016 8.15503 22.1335C7.99314 22.1497 7.8569 22.1578 7.75849 22.1622C7.70915 22.1643 7.66892 22.1653 7.63929 22.1659L7.60287 22.1665L7.59088 22.1666H7.5865H7.58472C7.58436 22.1666 7.58321 22.1666 7.58321 20.9999V22.1666C7.35644 22.1666 7.13457 22.1004 6.94477 21.9764L4.26821 20.2264C3.93863 20.0109 3.73999 19.6437 3.73999 19.2499V8.74992C3.73999 8.33311 3.96236 7.94797 4.32332 7.73955L13.4165 2.48955ZM13.8364 10.2599C14.5396 9.6739 15.5602 9.33325 16.9165 9.33325C18.273 9.33325 19.2936 9.6739 19.9968 10.2599C20.6918 10.8391 20.9999 11.6011 20.9999 12.2499C20.9999 12.8943 20.4776 13.4166 19.8332 13.4166C19.189 13.4166 18.6665 12.8943 18.6665 12.2499C18.6665 12.2629 18.6672 12.2688 18.6669 12.2689C18.6654 12.2692 18.6474 12.1727 18.5031 12.0524C18.3312 11.9093 17.8935 11.6666 16.9165 11.6666C15.9397 11.6666 15.502 11.9093 15.3301 12.0524C15.1921 12.1674 15.1696 12.2607 15.1667 12.2684C15.1672 12.5608 15.1825 12.5902 15.1886 12.6019C15.1888 12.6024 15.1891 12.6027 15.1893 12.6032C15.1898 12.6041 15.2036 12.634 15.2672 12.6905C15.3364 12.7519 15.4635 12.844 15.6884 12.9565C16.1405 13.1824 16.6025 13.3021 17.1996 13.4515L17.2376 13.4609C17.8004 13.6015 18.4897 13.7737 19.1884 14.1231C20.0772 14.5675 20.5415 15.2541 20.7706 15.827C20.8829 16.1074 20.9392 16.3601 20.9681 16.5478C20.9827 16.6424 20.9905 16.7228 20.9949 16.7851C20.9971 16.8163 20.9982 16.8431 20.9991 16.8651L20.9998 16.8945L20.9999 16.9066V16.9118V16.9143C20.9999 16.9148 20.9999 16.9166 19.8332 16.9166L20.9999 16.9143C20.9999 17.563 20.6918 18.3274 19.9968 18.9066C19.2936 19.4926 18.273 19.8333 16.9165 19.8333C15.5602 19.8333 14.5396 19.4926 13.8364 18.9066C13.1413 18.3274 12.8332 17.5654 12.8332 16.9166C12.8332 16.2722 13.3556 15.7499 13.9999 15.7499C14.6442 15.7499 15.1665 16.2722 15.1665 16.9166C15.1665 16.9036 15.166 16.8977 15.1663 16.8976C15.1678 16.8973 15.1858 16.9938 15.3301 17.1141C15.502 17.2573 15.9397 17.4999 16.9165 17.4999C17.8935 17.4999 18.3312 17.2573 18.5031 17.1141C18.6177 17.0186 18.6527 16.9381 18.6629 16.9091C18.6626 16.907 18.6622 16.9048 18.6619 16.9026C18.6543 16.8532 18.6378 16.7779 18.6042 16.6936C18.5417 16.5374 18.4226 16.349 18.1448 16.2101C17.6927 15.9841 17.2307 15.8644 16.6336 15.715L16.5955 15.7056C16.0328 15.565 15.3435 15.3928 14.6448 15.0434C13.9294 14.6857 13.4002 14.2427 13.1022 13.6467C12.8306 13.1035 12.8323 12.569 12.8332 12.2919C12.8332 12.2771 12.8332 12.2631 12.8332 12.2499C12.8332 11.6011 13.1413 10.8391 13.8364 10.2599Z" fill="black"/>
</svg>
