<svg width="20" height="18" viewBox="0 0 20 18" fill="none" xmlns="http://www.w3.org/2000/svg">
<g clip-path="url(#clip0_2_43)">
<path d="M3.88393 10.4062C3.88393 9.34003 4.71 8.47266 5.72545 8.47266H11.4174C11.879 8.47266 12.2545 8.07838 12.2545 7.59375V2.63672C12.2545 1.18282 11.128 0 9.7433 0H7.39955C6.01488 0 4.88839 1.18282 4.88839 2.63672V4.07812H8.57143C8.84883 4.07812 9.07366 4.31419 9.07366 4.60547C9.07366 4.89674 8.84883 5.13281 8.57143 5.13281H2.51116C1.12649 5.13281 0 6.31563 0 7.76953V10.2305C0 11.6844 1.12649 12.8672 2.51116 12.8672H3.88393V10.4062ZM7.39955 2.67188C7.12215 2.67188 6.89732 2.43581 6.89732 2.14453C6.89732 1.85326 7.12215 1.61719 7.39955 1.61719C7.67696 1.61719 7.90179 1.85326 7.90179 2.14453C7.90179 2.43581 7.67696 2.67188 7.39955 2.67188Z" fill="black"/>
<path d="M17.3646 5.13281H15.9919V7.59375C15.9919 8.65997 15.1658 9.52734 14.1504 9.52734H8.45839C7.99683 9.52734 7.62134 9.92162 7.62134 10.4062V15.3633C7.62134 16.8172 8.74783 18 10.1325 18H12.4762C13.8609 18 14.9874 16.8172 14.9874 15.3633V13.9219H11.3044C11.027 13.9219 10.8021 13.6858 10.8021 13.3945C10.8021 13.1033 11.027 12.8672 11.3044 12.8672H17.3646C18.7493 12.8672 19.8758 11.6844 19.8758 10.2305V7.76953C19.8758 6.31563 18.7493 5.13281 17.3646 5.13281ZM12.4762 15.3281C12.7537 15.3281 12.9785 15.5642 12.9785 15.8555C12.9785 16.1467 12.7537 16.3828 12.4762 16.3828C12.1988 16.3828 11.974 16.1467 11.974 15.8555C11.974 15.5642 12.1988 15.3281 12.4762 15.3281Z" fill="black"/>
</g>
<defs>
<clipPath id="clip0_2_43">
<rect width="20" height="18" fill="white"/>
</clipPath>
</defs>
</svg>
