<svg width="27" height="27" viewBox="0 0 27 27" fill="none" xmlns="http://www.w3.org/2000/svg">
<path d="M23.8754 14.2631C23.6326 13.9483 23.3692 13.6335 23.0876 13.3198C23.2812 13.0952 23.4656 12.8702 23.6391 12.6452C25.4329 10.3193 25.9423 8.20937 25.0732 6.70417C24.2042 5.19892 22.1225 4.58504 19.211 4.97559C18.9041 5.01678 18.5908 5.06899 18.2725 5.131C18.1642 4.81433 18.0495 4.50758 17.9281 4.21247C16.8107 1.49602 15.2381 0 13.5 0C11.7619 0 10.1893 1.49602 9.07195 4.21247C8.95055 4.50758 8.83586 4.81433 8.72754 5.131C8.40923 5.06904 8.09589 5.01678 7.78903 4.97559C4.87788 4.5851 2.79592 5.19892 1.92686 6.70417C1.0578 8.20942 1.56711 10.3193 3.36092 12.6452C3.53442 12.8702 3.71883 13.0952 3.91242 13.3198C3.63081 13.6335 3.36741 13.9483 3.12462 14.2631C1.3308 16.589 0.821496 18.699 1.69056 20.2042C2.38881 21.4136 3.8696 22.0475 5.93483 22.0475C6.43997 22.0475 6.9805 22.0095 7.55267 21.9328C7.92118 21.8833 8.29886 21.8181 8.68361 21.7387C8.80464 22.1018 8.93399 22.4522 9.07195 22.7876C10.1893 25.504 11.7619 27 13.5 27C15.2381 27 16.8107 25.504 17.9281 22.7875C18.066 22.4521 18.1954 22.1017 18.3164 21.7387C18.7011 21.8181 19.0788 21.8833 19.4473 21.9327C20.0197 22.0095 20.5599 22.0475 21.0652 22.0475C23.1302 22.0475 24.6113 21.4135 25.3094 20.2041C26.1786 18.6989 25.6692 16.589 23.8754 14.2631ZM20.8378 6.44024C22.2839 6.44024 23.306 6.80732 23.7031 7.49514C24.2227 8.39521 23.7428 9.92018 22.3864 11.679C22.2571 11.8466 22.121 12.0143 21.9793 12.182C21.1862 11.4274 20.2935 10.6892 19.3222 9.98557C19.188 8.81397 18.9863 7.69442 18.7225 6.6535C19.4969 6.51059 20.2079 6.44024 20.8378 6.44024ZM15.6001 17.2965C14.889 17.707 14.1872 18.0753 13.5005 18.4028C12.8133 18.0752 12.1113 17.7073 11.3999 17.2965C10.6149 16.8433 9.8637 16.3636 9.155 15.8653C9.09552 15.1086 9.06335 14.319 9.06335 13.5C9.06335 12.5825 9.10359 11.7018 9.17763 10.8632C9.8096 10.4292 10.4735 10.0103 11.1635 9.61189C11.9566 9.154 12.738 8.74932 13.4999 8.39457C14.262 8.74932 15.0433 9.154 15.8364 9.61189C16.5265 10.0103 17.1904 10.4292 17.8223 10.8632C17.8964 11.7018 17.9366 12.5825 17.9366 13.5C17.9366 14.319 17.9044 15.1086 17.8449 15.8653C17.1363 16.3636 16.3851 16.8433 15.6001 17.2965ZM17.6036 17.9299C17.4976 18.6033 17.3691 19.2412 17.2214 19.839C16.6346 19.6685 16.0233 19.4622 15.3927 19.2191C15.7263 19.042 16.0595 18.858 16.3912 18.6665C16.8043 18.428 17.2086 18.182 17.6036 17.9299ZM11.6072 19.2191C10.9765 19.4622 10.3653 19.6683 9.77848 19.8388C9.63088 19.2411 9.50231 18.6033 9.39632 17.9299C9.79135 18.182 10.1957 18.428 10.6088 18.6665C10.9405 18.858 11.2736 19.042 11.6072 19.2191ZM7.50062 14.6045C6.99964 14.1894 6.53026 13.7666 6.09715 13.3398C6.53606 12.9213 7.00898 12.5073 7.51206 12.1014C7.49187 12.5631 7.48132 13.0297 7.48132 13.5C7.48132 13.8707 7.48802 14.239 7.50062 14.6045ZM9.44009 8.80179C9.54645 8.17146 9.6728 7.57397 9.81598 7.01272C10.3781 7.16982 10.9638 7.36051 11.5682 7.58521C11.1686 7.79377 10.7696 8.01262 10.3725 8.24185C10.0564 8.42432 9.74568 8.61126 9.44009 8.80179ZM15.4317 7.58515C16.0361 7.36045 16.6219 7.16971 17.184 7.01267C17.3272 7.57397 17.4535 8.17146 17.5599 8.80179C17.2543 8.61126 16.9436 8.42432 16.6275 8.24185C16.2304 8.01257 15.8314 7.79372 15.4317 7.58515ZM19.4879 12.1014C19.991 12.5073 20.4639 12.9213 20.9029 13.3398C20.4697 13.7666 20.0004 14.1894 19.4994 14.6045C19.512 14.239 19.5187 13.8707 19.5187 13.5C19.5187 13.0297 19.5081 12.5631 19.4879 12.1014ZM13.5 1.58203C14.6443 1.58203 15.8598 3.03766 16.7287 5.50004C15.6818 5.79424 14.5967 6.18432 13.5 6.66114C12.4033 6.18432 11.3182 5.79429 10.2713 5.50004C11.1402 3.03766 12.3557 1.58203 13.5 1.58203ZM3.2969 7.49519C3.6941 6.80727 4.71572 6.44029 6.16222 6.44029C6.79203 6.44029 7.5031 6.51064 8.2775 6.6536C8.01367 7.69453 7.81202 8.81408 7.67786 9.98562C6.7066 10.6892 5.81386 11.4275 5.02079 12.182C4.87904 12.0144 4.74293 11.8467 4.61368 11.6791C3.25719 9.92023 2.77726 8.39526 3.2969 7.49519ZM5.92592 20.4681C4.47984 20.468 3.45774 20.101 3.0606 19.4132C2.54095 18.5131 3.02089 16.9881 4.37732 15.2293C4.57059 14.9786 4.77831 14.7277 4.99922 14.4772C5.78333 15.2481 6.67332 16.0042 7.64638 16.7263C7.77447 17.9532 7.9756 19.1268 8.24449 20.2161C7.39077 20.3854 6.61057 20.4681 5.92592 20.4681ZM13.5 25.418C12.3335 25.418 11.0931 23.905 10.2213 21.3553C11.2858 21.0458 12.3881 20.6383 13.5 20.1431C14.6119 20.6383 15.7142 21.0458 16.7787 21.3553C15.9068 23.905 14.6665 25.418 13.5 25.418ZM23.9394 19.4132C23.3543 20.4267 21.413 20.7432 18.7555 20.2161C19.0244 19.1268 19.2255 17.9532 19.3536 16.7263C20.3267 16.0042 21.2167 15.2481 22.0007 14.4772C22.2216 14.7277 22.4294 14.9787 22.6226 15.2293C23.9792 16.9881 24.4591 18.5131 23.9394 19.4132Z" fill="black"/>
<path d="M13.4999 15.9441C14.8498 15.9441 15.9441 14.8498 15.9441 13.4999C15.9441 12.15 14.8498 11.0557 13.4999 11.0557C12.15 11.0557 11.0557 12.15 11.0557 13.4999C11.0557 14.8498 12.15 15.9441 13.4999 15.9441Z" fill="black"/>
</svg>
