<svg width="24" height="24" viewBox="0 0 24 24" fill="none" xmlns="http://www.w3.org/2000/svg">
<path fill-rule="evenodd" clip-rule="evenodd" d="M22.75 6C22.75 4.74 22.25 3.532 21.359 2.641C20.468 1.75 19.26 1.25 18 1.25H6C4.74 1.25 3.532 1.75 2.641 2.641C1.75 3.532 1.25 4.74 1.25 6V18C1.25 19.26 1.75 20.468 2.641 21.359C3.532 22.25 4.74 22.75 6 22.75H18C19.26 22.75 20.468 22.25 21.359 21.359C22.25 20.468 22.75 19.26 22.75 18V6ZM12.488 8.163L10.088 15.363C9.958 15.756 10.17 16.181 10.563 16.312C10.956 16.442 11.381 16.23 11.512 15.837L13.912 8.637C14.042 8.244 13.83 7.819 13.437 7.688C13.044 7.558 12.619 7.77 12.488 8.163ZM15.07 10.13L16.939 12L15.07 13.87C14.777 14.162 14.777 14.638 15.07 14.93C15.362 15.223 15.838 15.223 16.13 14.93L18.53 12.53C18.823 12.237 18.823 11.763 18.53 11.47L16.13 9.07C15.838 8.777 15.362 8.777 15.07 9.07C14.777 9.362 14.777 9.838 15.07 10.13ZM7.87 9.07L5.47 11.47C5.177 11.763 5.177 12.237 5.47 12.53L7.87 14.93C8.162 15.223 8.638 15.223 8.93 14.93C9.223 14.638 9.223 14.162 8.93 13.87L7.061 12L8.93 10.13C9.223 9.838 9.223 9.362 8.93 9.07C8.638 8.777 8.162 8.777 7.87 9.07Z" fill="black"/>
</svg>
