<svg width="89" height="106" viewBox="0 0 89 106" fill="none" xmlns="http://www.w3.org/2000/svg">
<path d="M48.6879 28.1542L65.0298 11.8122M68.2982 15.0806L61.7614 8.54383L69.9323 3.64125L73.2007 6.90964L68.2982 15.0806ZM19.3541 21.5357C17.7849 19.9679 16.7054 17.9777 16.247 15.8074C15.7885 13.6371 15.971 11.3804 16.7721 9.31191L21.4197 13.9596H27.9565V7.42278L23.3088 2.77513C25.3775 1.97222 27.6349 1.78828 29.8062 2.24571C31.9775 2.70313 33.9689 3.78219 35.5378 5.35141C37.1067 6.92062 38.1853 8.91226 38.6422 11.0837C39.0992 13.2551 38.9147 15.5125 38.1114 17.5809L59.2578 38.7307C61.3262 37.9273 63.5837 37.7429 65.7551 38.1998C67.9265 38.6568 69.9181 39.7354 71.4873 41.3042C73.0565 42.8731 74.1356 44.8645 74.593 47.0358C75.0504 49.2071 74.8665 51.4646 74.0636 53.5332L69.4192 48.8856H62.8824V55.4223L67.5301 60.07C65.462 60.8729 63.2051 61.0571 61.0342 60.6002C58.8632 60.1433 56.872 59.0651 55.303 57.4967C53.7339 55.9284 52.6548 53.9376 52.1969 51.7669C51.7391 49.5962 51.9223 47.3392 52.7243 45.2707L31.5713 24.1177C29.5037 24.9174 27.2483 25.0991 25.0793 24.6407C22.9104 24.1823 20.9213 23.1036 19.3541 21.5357Z" stroke="#BBBAB9" stroke-width="3" stroke-linecap="round" stroke-linejoin="round"/>
<path d="M46.0835 39.593L27.7674 57.909C27.3576 58.3197 26.8708 58.6454 26.335 58.8677C25.7991 59.0899 25.2246 59.2043 24.6445 59.2043C24.0644 59.2043 23.4899 59.0899 22.954 58.8677C22.4182 58.6454 21.9314 58.3197 21.5216 57.909L18.933 55.3205C18.5224 54.9107 18.1966 54.4239 17.9744 53.888C17.7521 53.3521 17.6377 52.7777 17.6377 52.1975C17.6377 51.6174 17.7521 51.043 17.9744 50.5071C18.1966 49.9712 18.5224 49.4844 18.933 49.0746L37.249 30.7585" stroke="#BBBAB9" stroke-width="3" stroke-linecap="round" stroke-linejoin="round"/>
<path d="M18.0811 20C13.8161 20 9.72583 21.6743 6.71004 24.6546C3.69425 27.6349 2 31.6771 2 35.8919V72.357C2 76.5718 3.69425 80.6139 6.71004 83.5942C9.72583 86.5745 13.8161 88.2489 18.0811 88.2489H70.9189C75.1839 88.2489 79.2742 86.5745 82.29 83.5942C85.3057 80.6139 87 76.5718 87 72.357V35.8919C87 31.6771 85.3057 27.6349 82.29 24.6546C79.2742 21.6743 75.1839 20 70.9189 20H40.9583M2 71.0811H87M31.2216 88.2489V94.9189C31.2216 97.3274 30.2535 99.6372 28.5302 101.34C26.8069 103.043 24.4696 104 22.0324 104H19.2757M57.7784 88.2489V94.9189C57.7784 97.3274 58.7465 99.6372 60.4698 101.34C62.1931 103.043 64.5304 104 66.9676 104H69.7243M19.2665 104H69.7335" stroke="#BBBAB9" stroke-width="3" stroke-linecap="round" stroke-linejoin="round"/>
<line x1="32" y1="79.5" x2="57" y2="79.5" stroke="#BBBAB9" stroke-width="3"/>
</svg>
